<svg width="20" height="20" viewBox="0 0 20 20" fill="none" xmlns="http://www.w3.org/2000/svg">
<path d="M8.63125 0.998444C9.44679 0.403543 10.5532 0.403543 11.3688 0.998445L12.013 1.4684C12.4117 1.75924 12.8927 1.91551 13.3862 1.91457L14.1836 1.91306C15.1931 1.91113 16.0882 2.56147 16.3983 3.52212L16.6433 4.28101C16.7949 4.75065 17.0922 5.15979 17.492 5.4491L18.138 5.9166C18.9558 6.5084 19.2977 7.56067 18.984 8.52013L18.7361 9.27808C18.5827 9.74714 18.5827 10.2529 18.7361 10.7219L18.984 11.4799C19.2977 12.4393 18.9558 13.4916 18.138 14.0834L17.492 14.5509C17.0922 14.8402 16.7949 15.2494 16.6433 15.719L16.3983 16.4779C16.0882 17.4385 15.1931 18.0889 14.1836 18.0869L13.3862 18.0854C12.8927 18.0845 12.4117 18.2408 12.013 18.5316L11.3688 19.0016C10.5532 19.5965 9.44679 19.5965 8.63125 19.0016L7.98699 18.5316C7.58829 18.2408 7.10732 18.0845 6.61381 18.0854L5.81636 18.0869C4.8069 18.0889 3.91179 17.4385 3.60167 16.4779L3.35669 15.719C3.20508 15.2494 2.90783 14.8402 2.50802 14.5509L1.86198 14.0834C1.04418 13.4916 0.702276 12.4393 1.01604 11.4799L1.26391 10.7219C1.41731 10.2529 1.41731 9.74714 1.26391 9.27808L1.01604 8.52013C0.702276 7.56067 1.04418 6.5084 1.86198 5.9166L2.50802 5.4491C2.90783 5.15979 3.20508 4.75065 3.35669 4.28101L3.60167 3.52212C3.91179 2.56147 4.8069 1.91113 5.81636 1.91306L6.61381 1.91457C7.10732 1.91551 7.58829 1.75924 7.98699 1.4684L8.63125 0.998444Z" fill="url(#paint0_linear_477_9)"/>
<path d="M12.7565 7.17718C12.8947 7.06228 13.0787 6.99876 13.2695 7.00002C13.4604 7.00128 13.6433 7.06722 13.7795 7.18394C13.9157 7.30065 13.9947 7.459 13.9997 7.62558C14.0048 7.79215 13.9355 7.95393 13.8065 8.07676L9.89085 12.3519C9.82352 12.4152 9.74226 12.466 9.65192 12.5013C9.56158 12.5366 9.46403 12.5556 9.36509 12.5572C9.26614 12.5588 9.16785 12.5429 9.07608 12.5106C8.98431 12.4783 8.90094 12.4301 8.83097 12.3691L6.23426 10.1021C6.16195 10.0433 6.10395 9.97234 6.06372 9.89352C6.02349 9.8147 6.00186 9.72961 6.00011 9.64334C5.99837 9.55706 6.01655 9.47136 6.05357 9.39135C6.09059 9.31134 6.14569 9.23866 6.21558 9.17764C6.28547 9.11663 6.36872 9.06853 6.46037 9.03621C6.55202 9.00389 6.65019 8.98802 6.74901 8.98954C6.84784 8.99106 6.9453 9.00995 7.03559 9.04507C7.12588 9.08019 7.20713 9.13082 7.27452 9.19395L9.32951 10.9871L12.7378 7.19603L12.7565 7.17718Z" fill="white"/>
<defs>
<linearGradient id="paint0_linear_477_9" x1="5.5" y1="19" x2="15.5" y2="1.5" gradientUnits="userSpaceOnUse">
<stop stop-color="#F9CE34"/>
<stop offset="0.5" stop-color="#EE2A7B"/>
<stop offset="1" stop-color="#6228D7"/>
</linearGradient>
</defs>
</svg>
