<svg width="24" height="24" viewBox="0 0 24 24" fill="none" xmlns="http://www.w3.org/2000/svg">
<path d="M16.7244 5.0532C16.9874 5.23238 17.1685 5.50871 17.2278 5.82141C17.2871 6.13411 17.2198 6.45755 17.0406 6.7206C16.8614 6.98364 16.5851 7.16473 16.2724 7.22403C15.9597 7.28332 15.6362 7.21598 15.3732 7.0368C14.2653 6.28366 12.9373 5.92294 11.6006 6.01211C10.264 6.10128 8.99561 6.6352 7.9976 7.52882C6.99958 8.42244 6.32933 9.62434 6.09361 10.9431C5.8579 12.2618 6.07028 13.6215 6.69693 14.8055C7.32358 15.9895 8.32844 16.9298 9.55144 17.4764C10.7744 18.0231 12.1452 18.1448 13.4454 17.8221C14.7455 17.4994 15.9003 16.7509 16.7257 15.6957C17.5512 14.6406 17.9997 13.3396 18 12C18 11.6817 18.1264 11.3765 18.3515 11.1515C18.5765 10.9264 18.8817 10.8 19.2 10.8C19.5183 10.8 19.8235 10.9264 20.0485 11.1515C20.2736 11.3765 20.4 11.6817 20.4 12C20.3997 13.8756 19.7717 15.6971 18.6161 17.1744C17.4604 18.6516 15.8436 19.6996 14.0232 20.1514C12.2029 20.6032 10.2837 20.4327 8.57143 19.6671C6.85919 18.9016 5.45241 17.585 4.57524 15.9272C3.69807 14.2694 3.40098 12.3657 3.73129 10.5194C4.0616 8.6731 5.00031 6.99049 6.39786 5.73962C7.79542 4.48875 9.57141 3.7416 11.4429 3.6172C13.3143 3.4928 15.1736 3.99831 16.7244 5.0532Z" fill="black"/>
<path d="M16.2468 15.0072C16.114 15.0921 15.9658 15.1501 15.8107 15.1777C15.6555 15.2054 15.4964 15.2022 15.3425 15.1684C15.1885 15.1346 15.0428 15.0708 14.9135 14.9806C14.7842 14.8905 14.6739 14.7758 14.589 14.643C14.5041 14.5102 14.4461 14.362 14.4184 14.2069C14.3908 14.0517 14.3939 13.8926 14.4278 13.7387C14.4616 13.5847 14.5254 13.4389 14.6155 13.3097C14.7057 13.1804 14.8204 13.0701 14.9532 12.9852L19.1316 10.3128C19.3997 10.1469 19.7222 10.0931 20.0296 10.1631C20.337 10.2332 20.6044 10.4213 20.7742 10.6869C20.944 10.9525 21.0024 11.2743 20.9369 11.5826C20.8714 11.891 20.6871 12.1612 20.424 12.3348L16.2468 15.0072Z" fill="black"/>
<path d="M22.6836 14.892C22.8061 15.1814 22.8102 15.5073 22.695 15.7996C22.5798 16.092 22.3546 16.3275 22.0676 16.4556C21.7807 16.5837 21.4549 16.5941 21.1604 16.4846C20.8658 16.3751 20.626 16.1544 20.4924 15.87L18.6828 11.814C18.615 11.6696 18.5766 11.5131 18.57 11.3537C18.5633 11.1943 18.5885 11.0352 18.6441 10.8856C18.6997 10.7361 18.7846 10.5991 18.8937 10.4828C19.0029 10.3664 19.1342 10.273 19.2798 10.208C19.4255 10.143 19.5827 10.1076 19.7422 10.1041C19.9017 10.1005 20.0603 10.1288 20.2088 10.1873C20.3572 10.2458 20.4925 10.3333 20.6067 10.4447C20.7209 10.556 20.8118 10.6891 20.874 10.836L22.6836 14.892Z" fill="black"/>
</svg>
