<svg width="26" height="26" viewBox="0 0 26 26" fill="none" xmlns="http://www.w3.org/2000/svg">
<path d="M7.75 0.5H18.25C22.25 0.5 25.5 3.75 25.5 7.75V18.25C25.5 20.1728 24.7362 22.0169 23.3765 23.3765C22.0169 24.7362 20.1728 25.5 18.25 25.5H7.75C3.75 25.5 0.5 22.25 0.5 18.25V7.75C0.5 5.82718 1.26384 3.98311 2.62348 2.62348C3.98311 1.26384 5.82718 0.5 7.75 0.5ZM7.5 3C6.30653 3 5.16193 3.47411 4.31802 4.31802C3.47411 5.16193 3 6.30653 3 7.5V18.5C3 20.9875 5.0125 23 7.5 23H18.5C19.6935 23 20.8381 22.5259 21.682 21.682C22.5259 20.8381 23 19.6935 23 18.5V7.5C23 5.0125 20.9875 3 18.5 3H7.5ZM19.5625 4.875C19.9769 4.875 20.3743 5.03962 20.6674 5.33265C20.9604 5.62567 21.125 6.0231 21.125 6.4375C21.125 6.8519 20.9604 7.24933 20.6674 7.54235C20.3743 7.83538 19.9769 8 19.5625 8C19.1481 8 18.7507 7.83538 18.4576 7.54235C18.1646 7.24933 18 6.8519 18 6.4375C18 6.0231 18.1646 5.62567 18.4576 5.33265C18.7507 5.03962 19.1481 4.875 19.5625 4.875ZM13 6.75C14.6576 6.75 16.2473 7.40848 17.4194 8.58058C18.5915 9.75269 19.25 11.3424 19.25 13C19.25 14.6576 18.5915 16.2473 17.4194 17.4194C16.2473 18.5915 14.6576 19.25 13 19.25C11.3424 19.25 9.75269 18.5915 8.58058 17.4194C7.40848 16.2473 6.75 14.6576 6.75 13C6.75 11.3424 7.40848 9.75269 8.58058 8.58058C9.75269 7.40848 11.3424 6.75 13 6.75ZM13 9.25C12.0054 9.25 11.0516 9.64509 10.3483 10.3483C9.64509 11.0516 9.25 12.0054 9.25 13C9.25 13.9946 9.64509 14.9484 10.3483 15.6517C11.0516 16.3549 12.0054 16.75 13 16.75C13.9946 16.75 14.9484 16.3549 15.6517 15.6517C16.3549 14.9484 16.75 13.9946 16.75 13C16.75 12.0054 16.3549 11.0516 15.6517 10.3483C14.9484 9.64509 13.9946 9.25 13 9.25Z" fill="#2B2B2B"/>
</svg>
