<svg width="25" height="26" viewBox="0 0 25 26" fill="none" xmlns="http://www.w3.org/2000/svg">
<path d="M7.25 0.5H17.75C21.75 0.5 25 3.75 25 7.75V18.25C25 20.1728 24.2362 22.0169 22.8765 23.3765C21.5169 24.7362 19.6728 25.5 17.75 25.5H7.25C3.25 25.5 0 22.25 0 18.25V7.75C0 5.82718 0.763837 3.98311 2.12348 2.62348C3.48311 1.26384 5.32718 0.5 7.25 0.5ZM7 3C5.80653 3 4.66193 3.47411 3.81802 4.31802C2.97411 5.16193 2.5 6.30653 2.5 7.5V18.5C2.5 20.9875 4.5125 23 7 23H18C19.1935 23 20.3381 22.5259 21.182 21.682C22.0259 20.8381 22.5 19.6935 22.5 18.5V7.5C22.5 5.0125 20.4875 3 18 3H7ZM19.0625 4.875C19.4769 4.875 19.8743 5.03962 20.1674 5.33265C20.4604 5.62567 20.625 6.0231 20.625 6.4375C20.625 6.8519 20.4604 7.24933 20.1674 7.54235C19.8743 7.83538 19.4769 8 19.0625 8C18.6481 8 18.2507 7.83538 17.9576 7.54235C17.6646 7.24933 17.5 6.8519 17.5 6.4375C17.5 6.0231 17.6646 5.62567 17.9576 5.33265C18.2507 5.03962 18.6481 4.875 19.0625 4.875ZM12.5 6.75C14.1576 6.75 15.7473 7.40848 16.9194 8.58058C18.0915 9.75269 18.75 11.3424 18.75 13C18.75 14.6576 18.0915 16.2473 16.9194 17.4194C15.7473 18.5915 14.1576 19.25 12.5 19.25C10.8424 19.25 9.25269 18.5915 8.08058 17.4194C6.90848 16.2473 6.25 14.6576 6.25 13C6.25 11.3424 6.90848 9.75269 8.08058 8.58058C9.25269 7.40848 10.8424 6.75 12.5 6.75ZM12.5 9.25C11.5054 9.25 10.5516 9.64509 9.84835 10.3483C9.14509 11.0516 8.75 12.0054 8.75 13C8.75 13.9946 9.14509 14.9484 9.84835 15.6517C10.5516 16.3549 11.5054 16.75 12.5 16.75C13.4946 16.75 14.4484 16.3549 15.1517 15.6517C15.8549 14.9484 16.25 13.9946 16.25 13C16.25 12.0054 15.8549 11.0516 15.1517 10.3483C14.4484 9.64509 13.4946 9.25 12.5 9.25Z" fill="white"/>
</svg>
