<svg width="223" height="172" viewBox="0 0 223 172" fill="none" xmlns="http://www.w3.org/2000/svg">
<path fill-rule="evenodd" clip-rule="evenodd" d="M10.9707 10.8075C7.71013 11.1827 4.73216 12.8377 2.69187 15.4085C0.651576 17.9793 -0.283898 21.2553 0.09124 24.5159L9.37426 105.2C9.37672 105.224 9.37947 105.248 9.38251 105.272L10.8068 117.651C11.182 120.912 12.837 123.89 15.4078 125.93C17.9786 127.971 21.2546 128.906 24.5152 128.531L86.3722 121.414L83.5678 131.716C82.7057 134.883 83.137 138.263 84.7667 141.111C86.3964 143.96 89.0911 146.045 92.2579 146.907L182.716 171.531C185.883 172.393 189.263 171.962 192.111 170.332C194.96 168.703 197.045 166.008 197.907 162.841L222.531 72.3828C223.393 69.216 222.962 65.8364 221.332 62.9876C219.703 60.1387 217.008 58.054 213.841 57.1919L123.383 32.5678C122.352 32.2873 121.299 32.1437 120.249 32.1338L117.815 10.9714C117.439 7.71081 115.784 4.73284 113.214 2.69255C110.643 0.652261 107.367 -0.283214 104.106 0.091924L10.9707 10.8075ZM114.373 33.555L111.854 11.6572C111.661 9.97749 110.808 8.44338 109.484 7.39232C108.159 6.34126 106.472 5.85935 104.792 6.0526L11.6565 16.7682C9.9768 16.9614 8.44269 17.814 7.39163 19.1384C6.34058 20.4628 5.85866 22.1504 6.05192 23.8301L14.653 98.5872L32.9889 81.2276C34.01 80.2609 35.5655 80.1331 36.7307 80.9202L58.4219 95.572L84.5081 66.0345C85.528 64.8797 87.2568 64.6852 88.5078 65.5845L99.4321 73.4375L108.192 41.2579C109.054 38.0911 111.139 35.3964 113.988 33.7667C114.115 33.6937 114.244 33.6232 114.373 33.555ZM97.7498 79.6175L87.209 72.0403L61.1748 101.519C60.1771 102.649 58.496 102.863 57.247 102.019L35.3664 87.2392L15.5102 106.038L16.7675 116.966C16.9608 118.645 17.8134 120.179 19.1377 121.231C20.4621 122.282 22.1497 122.763 23.8294 122.57L88.0694 115.179L97.7498 79.6175ZM41.4117 29.3248C36.5044 29.8894 32.0224 32.3802 28.9516 36.2495C25.8809 40.1187 24.4729 45.0492 25.0375 49.9565C25.6021 54.8638 28.093 59.3458 31.9622 62.4166C35.8315 65.4873 40.762 66.8952 45.6693 66.3306C50.5766 65.766 55.0586 63.2751 58.1293 59.4059C61.2001 55.5367 62.608 50.6061 62.0434 45.6989C61.4788 40.7916 58.9879 36.3096 55.1187 33.2388C51.2495 30.1681 46.3189 28.7602 41.4117 29.3248ZM33.6514 39.9794C35.7329 37.3566 38.771 35.6681 42.0975 35.2854C45.4239 34.9027 48.7661 35.8571 51.3888 37.9386C54.0116 40.0201 55.7 43.0582 56.0827 46.3847C56.4655 49.7111 55.5111 53.0533 53.4296 55.676C51.3481 58.2988 48.3099 59.9872 44.9835 60.3699C41.6571 60.7527 38.3149 59.7983 35.6921 57.7168C33.0694 55.6353 31.3809 52.5971 30.9982 49.2707C30.6155 45.9443 31.5699 42.6021 33.6514 39.9794ZM121.807 38.3571C120.175 37.913 118.434 38.1352 116.967 38.9747C115.499 39.8143 114.425 41.2024 113.981 42.8338L89.3571 133.292C88.913 134.924 89.1352 136.665 89.9747 138.132C90.8143 139.6 92.2024 140.674 93.8338 141.118L184.292 165.742C185.924 166.186 187.665 165.964 189.132 165.124C190.6 164.285 191.674 162.897 192.118 161.265L216.742 70.8068C217.186 69.1755 216.964 67.4345 216.124 65.9669C215.285 64.4993 213.897 63.4253 212.265 62.9812L121.807 38.3571ZM128.539 114.994L138.387 78.8147C138.6 78.0336 139.01 77.3254 139.58 76.7505C140.151 76.1756 140.86 75.7582 141.639 75.5388C142.418 75.3195 143.241 75.3058 144.027 75.4989C144.814 75.6921 145.536 76.0856 146.125 76.6411L175.11 103.959C175.728 104.541 176.175 105.281 176.405 106.098C176.635 106.915 176.639 107.78 176.416 108.599C176.193 109.418 175.751 110.161 175.139 110.749C174.526 111.337 173.766 111.748 172.938 111.937L134.102 120.793C133.313 120.972 132.491 120.944 131.716 120.712C130.942 120.479 130.24 120.05 129.68 119.467C129.12 118.883 128.721 118.164 128.521 117.38C128.321 116.596 128.327 115.774 128.539 114.994Z" fill="#D5D5D5"/>
</svg>
