<svg width="35" height="35" viewBox="0 0 35 35" fill="none" xmlns="http://www.w3.org/2000/svg">
<path fill-rule="evenodd" clip-rule="evenodd" d="M17.5 0C7.83502 0 0 7.83502 0 17.5C0 27.165 7.83502 35 17.5 35C27.165 35 35 27.165 35 17.5C35 7.83502 27.165 0 17.5 0ZM15.4981 8.77688L14.0699 10.2038L21.3728 17.5067L14.0712 24.8096L15.4981 26.2365L23.2776 18.4557C23.403 18.3311 23.5025 18.1829 23.5704 18.0197C23.6383 17.8565 23.6733 17.6815 23.6733 17.5047C23.6733 17.3279 23.6383 17.1528 23.5704 16.9896C23.5025 16.8264 23.403 16.6782 23.2776 16.5536L15.4981 8.77688Z" fill="white" fill-opacity="0.8"/>
</svg>
